<?xml version="1.0" encoding="utf-8"?>
<!-- Generator: Adobe Illustrator 16.0.0, SVG Export Plug-In . SVG Version: 6.00 Build 0)  -->
<!DOCTYPE svg PUBLIC "-//W3C//DTD SVG 1.1//EN" "http://www.w3.org/Graphics/SVG/1.1/DTD/svg11.dtd">
<svg version="1.1" id="Layer_1" xmlns="http://www.w3.org/2000/svg" xmlns:xlink="http://www.w3.org/1999/xlink" x="0px" y="0px"
	 width="595.28px" height="841.89px" viewBox="0 0 595.28 841.89" enable-background="new 0 0 595.28 841.89" xml:space="preserve">
<linearGradient id="SVGID_1_" gradientUnits="userSpaceOnUse" x1="1374.9883" y1="791.9248" x2="1601.1582" y2="791.9248" gradientTransform="matrix(0.9857 -0.1684 0.1684 0.9857 -1015.6309 339.3311)">
	<stop  offset="0" style="stop-color:#FBCD6A"/>
	<stop  offset="1" style="stop-color:#F9F17C"/>
</linearGradient>
<path fill="url(#SVGID_1_)" d="M698.716,935.801c1.408,15.078-10.984,27.971-27.428,29.305l-127.381,10.363
	c-14.607,1.188-30.063-8.551-34.846-22.186l-47.336-134.916c-6.955-19.828,1.646-39.049,19.758-42.143l160.682-27.455
	c21.1-3.604,40.271,12.662,42.391,35.344L698.716,935.801z"/>
<linearGradient id="SVGID_2_" gradientUnits="userSpaceOnUse" x1="1513.2119" y1="450.5654" x2="1739.3828" y2="450.5654" gradientTransform="matrix(0.9857 -0.1684 0.1684 0.9857 -1015.6309 339.3311)">
	<stop  offset="0" style="stop-color:#F15B22"/>
	<stop  offset="1" style="stop-color:#F78C1F"/>
</linearGradient>
<path fill="url(#SVGID_2_)" d="M777.478,576.045c1.408,15.08-10.984,27.971-27.428,29.305l-127.381,10.363
	c-14.607,1.188-30.063-8.551-34.846-22.186l-47.336-134.916c-6.955-19.828,1.646-39.046,19.758-42.143l160.682-27.454
	c21.1-3.604,40.271,12.661,42.391,35.343L777.478,576.045z"/>
<linearGradient id="SVGID_3_" gradientUnits="userSpaceOnUse" x1="-3159.3828" y1="2112.1211" x2="-3088.4985" y2="2112.1211" gradientTransform="matrix(0.6667 0.7453 -0.7453 0.6667 4251.1025 1569.7568)">
	<stop  offset="0" style="stop-color:#F9AE20"/>
	<stop  offset="1" style="stop-color:#FEE200"/>
</linearGradient>
<path fill="url(#SVGID_3_)" d="M595.597,691.021c-3.768,2.887-9.254,1.746-12.35-2.396l-23.979-32.086
	c-2.75-3.68-2.74-9.404,0.082-12.947l27.926-35.047c4.104-5.15,10.639-6.07,14.479-1.779l34.064,38.076
	c4.473,5.002,3.35,12.801-2.318,17.143L595.597,691.021z"/>
<linearGradient id="SVGID_4_" gradientUnits="userSpaceOnUse" x1="9.7305" y1="733.6748" x2="132.0439" y2="733.6748" gradientTransform="matrix(1 0 -0.0938 0.9854 497.6533 77.7485)">
	<stop  offset="0" style="stop-color:#FAA226"/>
	<stop  offset="1" style="stop-color:#FCD705"/>
</linearGradient>
<path fill="url(#SVGID_4_)" d="M556.208,849.773c-1.109,11.73-11.465,20.439-22.844,19.502l-83.023-6.828
	c-8.975-0.738-15.434-9.477-14.615-19.555l6.795-83.709c0.836-10.287,8.826-19.246,18.049-20.006l85.451-7.029
	c11.732-0.965,20.563,8,19.426,20.016L556.208,849.773z"/>
<linearGradient id="SVGID_5_" gradientUnits="userSpaceOnUse" x1="2215.0322" y1="9731.4375" x2="2276.5605" y2="9731.4375" gradientTransform="matrix(-0.8842 -0.467 0.5431 -0.8275 -2948.8809 9954.9424)">
	<stop  offset="0" style="stop-color:#5BBA47"/>
	<stop  offset="1" style="stop-color:#BDD631"/>
</linearGradient>
<path fill="url(#SVGID_5_)" d="M336.932,818.299c3.248-4.957,9.9-6.398,14.742-3.309l35.324,22.543
	c3.82,2.436,4.64,7.84,1.906,12.131l-22.688,35.637c-2.789,4.381-8.449,6.488-12.729,4.66l-39.66-16.951
	c-5.445-2.326-7.268-8.389-3.938-13.467L336.932,818.299z"/>
<linearGradient id="SVGID_6_" gradientUnits="userSpaceOnUse" x1="-2950.2559" y1="9293.8555" x2="-2899.4336" y2="9293.8555" gradientTransform="matrix(-0.7632 0.6461 -0.5651 -0.8127 3664.9795 10209.6973)">
	<stop  offset="0" style="stop-color:#FAA226"/>
	<stop  offset="1" style="stop-color:#FCD705"/>
</linearGradient>
<path fill="url(#SVGID_6_)" d="M614.179,766.445c-2.797-4.018-1.852-9.559,2.01-12.316l28.16-20.125
	c3.043-2.174,7.438-1.137,9.883,2.279l20.318,28.367c2.498,3.486,2.369,8.473-0.352,11.189l-25.211,25.17
	c-3.461,3.455-8.668,2.982-11.533-1.133L614.179,766.445z"/>
<linearGradient id="SVGID_7_" gradientUnits="userSpaceOnUse" x1="1390.333" y1="1063.0527" x2="1506.2129" y2="1063.0527" gradientTransform="matrix(0.9734 -0.2289 0.2289 0.9734 -1205.5664 161.5469)">
	<stop  offset="0" style="stop-color:#5ABF94"/>
	<stop  offset="1" style="stop-color:#4372B8"/>
</linearGradient>
<path opacity="0.8" fill="url(#SVGID_7_)" d="M506.603,893.26c0.9,6.934-3.432,14.041-9.848,16.137l-62.547,20.422
	c-9.053,2.957-19.012-0.918-22.004-9.055l-30.099-81.77c-4.496-12.217,2.48-23.223,15.167-23.992l83.736-5.059
	c8.221-0.498,15.676,7.102,16.916,16.621L506.603,893.26z"/>
<linearGradient id="SVGID_8_" gradientUnits="userSpaceOnUse" x1="4813.7041" y1="4726.8301" x2="4845.1514" y2="4726.8301" gradientTransform="matrix(0.133 -0.9911 0.9911 0.133 -4685.3809 4847.8867)">
	<stop  offset="0" style="stop-color:#FBB61F"/>
	<stop  offset="1" style="stop-color:#FBBE20"/>
</linearGradient>
<path fill="url(#SVGID_8_)" d="M654.622,677.879c1.846,0.443,3.229,2.229,3.139,4.059l-0.869,17.834
	c-0.127,2.584-2.072,4.732-4.426,4.703l-23.645-0.275c-3.531-0.041-5.648-2.875-4.617-6.166l6.816-21.721
	c0.668-2.135,3.316-3.289,5.85-2.684L654.622,677.879z"/>
<rect y="2.857" fill="none" width="595.276" height="841.889"/>
</svg>
