<?xml version="1.0" encoding="utf-8"?>
<!-- Generator: Adobe Illustrator 14.0.0, SVG Export Plug-In . SVG Version: 6.00 Build 43363)  -->
<!DOCTYPE svg PUBLIC "-//W3C//DTD SVG 1.1//EN" "http://www.w3.org/Graphics/SVG/1.1/DTD/svg11.dtd">
<svg version="1.1" id="Layer_1" xmlns="http://www.w3.org/2000/svg" xmlns:xlink="http://www.w3.org/1999/xlink" x="0px" y="0px"
	 width="609px" height="301px" viewBox="0 0 609 301" enable-background="new 0 0 609 301" xml:space="preserve">
<g>
	<path fill="#666666" d="M314.427,175.32c2.383-2.383,4.383-4.981,6.047-7.742l-10.59-10.59c-2.168,2.813-4.178,5.207-6.346,7.441
		c-9.841,9.844-25.797,9.844-35.638,0c-9.84-9.841-9.859-25.777-0.017-35.621c8.591-8.59,21.853-9.681,31.625-3.27l-21.389,21.391
		l10.59,10.59l26.691-26.695l-0.057-0.086l5.09-5.129c-1.654-2.734-3.643-5.309-6.008-7.672
		c-7.922-7.922-18.323-11.914-28.711-11.914c-10.381,0-20.75,3.992-28.671,11.914c-15.843,15.844-15.843,41.539,0,57.383
		C272.889,191.164,298.585,191.164,314.427,175.32z"/>
	<path fill="#EEA225" d="M115.643,137.238c5.438,0,9.852,4.414,9.852,9.851c0,5.435-4.414,9.849-9.852,9.849
		c-5.437,0-9.824-4.414-9.824-9.849C105.819,141.652,110.206,137.238,115.643,137.238z M100.768,114.738l12.375,9l-9.824,13.527
		h0.023c-0.144,0.184-0.285,0.379-0.425,0.573c-3.079,4.239-3.727,9.493-2.223,14.125c0.047,0.142,0.07,0.282,0.125,0.427
		c0.109,0.305,0.246,0.598,0.375,0.898c0.062,0.148,0.105,0.3,0.172,0.449c0.043,0.094,0.105,0.183,0.152,0.277
		c0.172,0.355,0.348,0.698,0.551,1.047v0.026c0.105,0.177,0.234,0.349,0.348,0.524c0.175,0.265,0.359,0.563,0.55,0.824
		c0.016,0.016,0.016,0.012,0.024,0.026c0.031,0.048,0.066,0.103,0.101,0.149c0.098,0.121,0.2,0.25,0.301,0.375h-0.027l9.726,13.398
		l-12.324,8.952c-12.703-15.043-34.465-18.647-51.324-8.625c-3.672-15.671-3.617-31.909,0-47.351
		C66.295,133.382,88.065,129.765,100.768,114.738z"/>
	<path fill="#EEA225" d="M148.889,111.078c1.68,5.172-1.152,10.73-6.324,12.41c-5.168,1.68-10.73-1.153-12.41-6.32
		c-1.68-5.172,1.16-10.711,6.332-12.391C141.655,103.097,147.21,105.906,148.889,111.078z M165.69,89.976l-4.734,14.551
		l-15.899-5.164l0.008,0.023c-0.223-0.082-0.453-0.152-0.68-0.227c-4.98-1.617-10.179-0.609-14.121,2.25
		c-0.121,0.09-0.246,0.156-0.363,0.25c-0.258,0.199-0.496,0.418-0.742,0.633c-0.121,0.109-0.254,0.195-0.371,0.309
		c-0.078,0.066-0.145,0.156-0.219,0.227c-0.285,0.273-0.559,0.547-0.828,0.848l-0.024,0.008c-0.136,0.155-0.257,0.332-0.39,0.492
		c-0.2,0.25-0.426,0.52-0.614,0.781c-0.007,0.02-0.007,0.02-0.015,0.031c-0.035,0.043-0.078,0.09-0.113,0.14
		c-0.086,0.134-0.176,0.267-0.266,0.399l-0.004-0.02l-9.742,13.387l-12.321-8.953c10.383-16.731,7.086-38.543-7.656-51.481
		c13.77-8.332,29.227-13.296,45.031-14.628c-4.32,19.121,5.848,38.707,24.067,46.145H165.69z"/>
	<path fill="#EEA225" d="M184.042,134.613c-4.395,3.195-10.563,2.219-13.758-2.18c-3.196-4.398-2.219-10.563,2.179-13.758
		c4.399-3.195,10.543-2.203,13.739,2.195C189.397,125.269,188.44,131.417,184.042,134.613z M209.303,144.074l-15.301-0.008
		l-0.003-16.719l-0.02,0.016c0.012-0.235,0.008-0.477,0.008-0.715c0-5.238-2.567-9.871-6.504-12.734
		c-0.121-0.09-0.223-0.188-0.352-0.273c-0.265-0.184-0.55-0.34-0.832-0.504c-0.136-0.086-0.261-0.184-0.406-0.262
		c-0.086-0.051-0.191-0.09-0.281-0.137c-0.352-0.188-0.692-0.363-1.063-0.524l-0.015-0.022c-0.188-0.082-0.395-0.141-0.59-0.219
		c-0.297-0.113-0.625-0.242-0.93-0.345c-0.023,0-0.019,0-0.035-0.003c-0.055-0.02-0.113-0.047-0.168-0.063
		c-0.152-0.043-0.309-0.086-0.465-0.129l0.02-0.013l-15.742-5.125l4.711-14.483c19.113,4.703,38.839-5.172,46.589-23.191
		c12.18,10.52,21.684,23.688,27.832,38.305C226.233,108.726,210.749,124.449,209.303,144.074z"/>
	<path fill="#EEA225" d="M172.522,175.32c-4.398-3.195-5.375-9.36-2.176-13.758c3.196-4.398,9.36-5.375,13.758-2.18
		s5.352,9.344,2.156,13.742C183.065,177.523,176.92,178.515,172.522,175.32z M171.331,202.265l-4.719-14.556l15.898-5.167
		l-0.019-0.012c0.226-0.067,0.453-0.145,0.679-0.215c4.985-1.621,8.598-5.492,10.106-10.121c0.043-0.145,0.105-0.27,0.148-0.418
		c0.09-0.313,0.153-0.629,0.223-0.949c0.039-0.157,0.094-0.305,0.125-0.465c0.02-0.098,0.023-0.211,0.039-0.313
		c0.07-0.391,0.133-0.77,0.172-1.173l0.016-0.019c0.019-0.207,0.011-0.422,0.023-0.633c0.02-0.316,0.043-0.668,0.043-0.988
		c-0.008-0.02-0.008-0.02-0.008-0.035c0.004-0.055,0.012-0.121,0.008-0.18c-0.008-0.16-0.012-0.32-0.02-0.48l0.02,0.016L194.073,150
		l15.23,0.003c1.434,19.634,16.922,35.345,36.453,37.146c-6.242,14.836-15.828,27.94-27.832,38.309
		c-7.746-18.012-27.48-27.879-46.589-23.191H171.331z"/>
	<path fill="#EEA225" d="M130.249,176.941c1.679-5.168,7.242-8.004,12.414-6.324c5.168,1.679,8.004,7.242,6.324,12.414
		c-1.68,5.168-7.235,7.977-12.406,6.297C131.413,187.648,128.569,182.113,130.249,176.941z M104.252,184.136l12.387-8.988
		l9.824,13.522l0.008-0.022c0.133,0.195,0.278,0.391,0.418,0.582c3.078,4.238,7.879,6.477,12.746,6.479
		c0.149,0,0.289,0.021,0.442,0.013c0.324-0.009,0.648-0.047,0.972-0.078c0.161-0.012,0.321-0.008,0.481-0.027
		c0.101-0.008,0.207-0.043,0.308-0.055c0.395-0.055,0.774-0.113,1.168-0.199l0.024,0.008c0.203-0.047,0.406-0.118,0.609-0.172
		c0.305-0.082,0.649-0.168,0.953-0.27c0.016-0.012,0.016-0.012,0.032-0.016c0.054-0.016,0.117-0.027,0.171-0.047
		c0.149-0.059,0.301-0.114,0.45-0.168l-0.004,0.02l15.746-5.105l4.703,14.484c-18.227,7.434-28.383,27.016-24.063,46.148
		c-16.035-1.352-31.46-6.418-45.031-14.633C111.331,222.683,114.62,200.863,104.252,184.136z"/>
	<path fill="#666666" d="M324,56.304v88.198c-0.033,0.692-0.047,1.375-0.047,2.075c0,0.609,0.021,1.223,0.047,1.828
		c0.949,21.563,18.725,38.75,40.527,38.75c22.404,0,40.572-18.168,40.572-40.578c0-22.407-18.168-40.575-40.572-40.575
		c-3.385,0-6.664,0.418-9.803,1.2v14.925c3.535-0.46,6.514-0.714,9.803-0.75c13.918,0,25.197,11.282,25.197,25.2
		s-11.279,25.203-25.197,25.203c-13.307,0-24.191-10.313-25.125-23.375v-3.75c0.008-0.086,0.016-0.168,0.021-0.25V114.73
		c-0.006,0.008-0.014,0.016-0.021,0.022V56.304H324z"/>
	<path fill="#666666" d="M554.234,117.914c2.361,2.363,4.354,4.938,6.012,7.671l-5.09,5.129l0.055,0.052l-5.391,5.391
		c-1.768-2.321-3.729-4.61-5.889-6.805c-4.59-4.957-11.139-8.043-18.436-8.043c-13.918,0-25.211,11.289-25.211,25.207
		c0,2.53,0.385,4.965,1.078,7.266c0.115,0.387,0.236,0.773,0.371,1.148c0.102,0.28,0.193,0.559,0.301,0.832
		c0.043,0.109,0.064,0.211,0.107,0.316c0.031,0.078,0.092,0.156,0.121,0.23c0.129,0.305,0.25,0.586,0.393,0.887
		c0.029,0.074,0.068,0.172,0.104,0.246c0.143,0.297,0.289,0.574,0.443,0.867c0.121,0.227,0.26,0.449,0.389,0.672
		c0.115,0.199,0.236,0.402,0.354,0.602c0.193,0.32,0.393,0.641,0.6,0.953c0.047,0.07,0.082,0.125,0.125,0.195
		c0.172,0.254,0.344,0.527,0.533,0.777c0.014,0.031,0.053,0.038,0.068,0.07c0.479,0.645,0.992,1.285,1.539,1.891
		c0.268,0.293,0.566,0.566,0.85,0.848c0.021,0.022,0.031,0.07,0.053,0.09c9.836,9.836,25.779,9.84,35.623,0.015
		c2.324-2.386,4.652-5.108,6.398-7.457l10.555,10.552c-1.664,2.762-3.68,5.379-6.064,7.762
		c-15.844,15.844-41.518,15.863-57.361,0.019c-15.85-15.847-15.85-41.538,0-57.382c7.922-7.922,18.283-11.914,28.672-11.914
		c10.383,0,20.785,3.992,28.707,11.914H554.234z"/>
	<path fill="#666666" d="M479.294,175.285c2.383-2.383,4.379-4.98,6.043-7.742l-10.586-10.59c-2.166,2.813-4.178,5.207-6.346,7.445
		c-9.84,9.84-25.797,9.84-35.639,0c-9.844-9.844-9.857-25.781-0.018-35.621c8.592-8.594,21.85-9.684,31.627-3.27l-21.389,21.387
		l10.59,10.59l26.689-26.691l-0.055-0.09l5.09-5.125c-1.656-2.739-3.646-5.313-6.008-7.672
		c-7.924-7.926-18.328-11.918-28.709-11.918c-10.383,0-20.75,3.992-28.672,11.914c-15.844,15.848-15.844,41.539,0,57.383
		C437.755,191.127,463.449,191.127,479.294,175.285z"/>
	<text transform="matrix(1 0 0 1 417.8745 212.8389)" fill="#EEA225" font-family="'Tahoma-Bold'" font-size="27">LBG NAME</text>
</g>
</svg>
