<?xml version="1.0" encoding="utf-8"?>
<!-- Generator: Adobe Illustrator 16.0.0, SVG Export Plug-In . SVG Version: 6.00 Build 0)  -->
<!DOCTYPE svg PUBLIC "-//W3C//DTD SVG 1.1//EN" "http://www.w3.org/Graphics/SVG/1.1/DTD/svg11.dtd">
<svg version="1.1" id="Layer_1" xmlns="http://www.w3.org/2000/svg" xmlns:xlink="http://www.w3.org/1999/xlink" x="0px" y="0px"
	 width="1133.86px" height="2267.72px" viewBox="0 0 1133.86 2267.72" enable-background="new 0 0 1133.86 2267.72"
	 xml:space="preserve">
<rect x="0.001" y="1144.973" fill="#757679" stroke="#000000" stroke-miterlimit="10" width="1133.859" height="1122.747"/>
<g>
	<g>
		<polygon opacity="0.4" fill="#1C75BC" points="476.528,625.793 464.699,573.128 451.048,596.797 		"/>
		<polygon opacity="0.4" fill="#1C75BC" points="474.159,621.979 463.346,569.095 478.624,578.464 		"/>
		<polygon opacity="0.4" fill="#1C75BC" points="478.666,624.798 469.952,571.528 484.846,581.493 		"/>
		<polygon opacity="0.4" fill="#1C75BC" points="485.294,655.108 476.576,601.838 491.471,611.805 		"/>
		<line opacity="0.4" fill="#1C75BC" x1="482.559" y1="573.719" x2="474.111" y2="627.033"/>
		<path opacity="0.4" fill="#1C75BC" d="M343.916,766.813l23.246-86.011l25.569-32.547l41.842-34.864l51.141,16.267l48.816-9.298
			l83.685-27.894l-9.297-76.713l123.201-139.475l223.162,162.725l13.946,79.035l-16.272,74.387l13.948,34.869l37.192,48.814
			l-30.222,60.439l-30.218-6.975c0,0,4.647-37.194-2.325-48.813c-6.974-11.623-48.815-34.874-48.815-34.874
			s-60.437-25.564-67.412-20.92c-6.974,4.651-34.87,16.272-48.817,9.303c-13.946-6.975-37.191-25.573-37.191-25.573l-55.792,13.949
			l32.543,53.464c0,0-2.323,41.843,11.625,51.14c13.945,9.3-4.651,16.273-4.651,16.273l-13.943-6.974l-67.413-30.22
			c0,0-25.572-32.545-34.87-32.545c-9.3,0-76.708-23.247-76.708-23.247l-30.223-18.594l9.297,51.141l4.651,44.165l-16.273,6.976
			l-76.711-23.248l-69.737,37.197"/>
		<polygon opacity="0.4" fill="#1C75BC" points="831.247,160.869 933.524,184.116 898.656,279.423 975.371,444.471 
			1014.885,567.676 942.825,572.323 887.035,651.355 949.799,688.552 989.317,744.341 880.063,765.261 817.297,725.741 
			842.87,653.68 701.07,611.837 631.333,523.506 666.201,418.897 589.489,267.802 696.425,293.371 698.744,323.59 649.927,330.566 
			682.476,384.03 731.291,356.136 747.561,295.695 784.754,291.045 782.428,212.009 812.65,256.177 838.218,207.362 		"/>
		<polygon opacity="0.4" fill="#1C75BC" points="443.042,553.724 489.534,511.885 487.208,428.198 519.754,330.566 563.921,288.721 
			575.543,244.555 444.375,462.403 416.479,476.871 422.119,521.183 		"/>
		<polygon opacity="0.4" fill="#1C75BC" points="289.619,718.771 334.343,695.391 373.303,667.63 401.198,709.469 447.689,725.741 
			424.445,746.669 429.094,762.936 412.823,783.86 431.42,807.104 419.794,832.674 384.928,814.078 370.98,846.62 326.812,830.349 
			301.24,816.403 322.166,774.559 312.646,752.734 324.489,737.364 		"/>
		<path opacity="0.4" fill="#1C75BC" d="M597.809,763.583l26.344-41.845l24.799,13.946l21.698-24.795l27.896,23.247
			c0,0,7.747,7.751,12.399,18.598c4.646,10.849,20.147-6.199,20.147-6.199s-7.752,18.6-9.302,26.346
			c-1.548,7.753-30.995,15.499-30.995,15.499l-23.247,7.75l-48.045-20.148L597.809,763.583z"/>
		<polygon opacity="0.4" fill="#1C75BC" points="610.207,878.267 655.147,842.625 700.096,836.422 662.899,864.321 670.649,895.314 
			696.994,906.164 642.752,907.715 		"/>
		<polygon opacity="0.4" fill="#1C75BC" points="201.06,797.678 242.902,831.774 221.207,873.619 204.158,909.263 225.858,938.709 
			258.402,932.512 297.147,941.81 321.942,909.263 321.942,881.369 356.038,862.768 376.186,847.271 301.795,827.124 
			272.349,808.526 		"/>
		<polygon opacity="0.4" fill="#1C75BC" points="487.772,529.817 504.286,386.795 543.511,279.529 586.858,274.166 607.505,308.134 
			582.733,322.436 609.567,326.011 588.924,365.342 549.7,435.064 578.605,488.7 555.897,528.031 549.7,579.875 510.481,597.756 
			491.902,561.997 		"/>
		<polygon opacity="0.4" fill="#1C75BC" points="619.503,710.89 636.551,658.196 690.795,653.548 709.395,669.047 700.096,625.652 
			738.84,611.703 768.285,644.248 794.63,648.9 817.875,648.9 831.825,675.248 791.531,720.189 817.297,725.741 788.433,749.636 
			766.735,741.888 774.484,718.64 707.841,698.491 670.649,695.391 661.348,706.239 645.851,715.539 		"/>
		<path opacity="0.4" fill="#1C75BC" d="M789.981,811.629l-86.79,38.742l17.051,54.243l48.043,13.948l38.743,4.649l18.599-23.245
			l37.195,12.398l20.148-23.25l51.141,1.552l52.695-20.146l-12.397-40.296l-32.546-41.845c0,0-30.995,17.048-43.396,20.146
			c-12.398,3.103-75.941,1.55-83.689,0C807.028,806.978,789.981,811.629,789.981,811.629z"/>
		<path opacity="0.4" fill="#1C75BC" d="M224.307,642.699c0,0,27.896-9.3,24.795-13.948c-3.1-4.647-18.598-27.896-18.598-27.896
			l27.898-13.948l15.497-13.949l-3.099,32.545l21.697-3.099l-10.848,35.646L224.307,642.699z"/>
		<path opacity="0.4" fill="#1C75BC" d="M325.043,507.869l-24.795,40.293c0,0,1.547,35.644,6.197,35.644
			c4.649,0,15.497,26.347,15.497,26.347L307.994,627.2l17.049,7.748l-27.896,15.499l-1.551,27.897l30.998,1.549l44.943-3.099
			l7.748-24.796l-29.447-37.197l-7.747-51.145l-32.548-4.649l18.599-10.846L325.043,507.869z"/>
		<polygon opacity="0.4" fill="#1C75BC" points="621.053,600.854 650.5,549.712 683.048,586.906 703.191,602.403 693.896,627.2 
			703.191,651.999 659.799,644.248 628.802,659.747 621.053,641.147 		"/>
		<polygon opacity="0.4" fill="#1C75BC" points="896.918,631.85 937.212,588.454 966.657,627.2 975.958,661.296 955.812,678.347 
			940.313,650.447 917.063,656.645 		"/>
		<path opacity="0.4" fill="#1C75BC" d="M204.158,918.563c-4.65,0-26.346-1.55-26.346-1.55l17.048-24.797l-13.948-27.895
			l18.596-17.051l3.099-18.597l40.295,3.101l-26.346,48.045L204.158,918.563z"/>
		<path opacity="0.4" fill="#1C75BC" d="M433.526,816.275c4.653,0,26.347-7.749,26.347-7.749l30.997,34.099l41.844,27.896
			l27.896,24.794l-6.199,30.996l-20.146-1.55l-23.249-1.549l38.748,23.249v-10.853l21.697-17.046l10.85-23.248l-13.949-21.695
			l27.897,10.849l-12.4-21.7l-34.095-6.197l-24.798-26.346l-24.795-27.899l18.599-23.243v-15.499l-41.846-4.649l-20.149,17.048
			h-24.797l-3.098,20.148L433.526,816.275z"/>
		<polyline opacity="0.4" fill="#1C75BC" points="425.781,645.8 402.532,682.99 441.277,721.738 442.827,746.535 475.374,748.086 
			506.37,741.888 514.117,721.738 478.476,695.391 520.318,679.894 514.117,636.498 478.476,617.902 450.575,596.202 
			452.126,644.248 431.978,642.699 		"/>
		<path opacity="0.4" fill="#1C75BC" d="M639.648,793.029l38.746,13.948l29.446-23.245l12.401,1.547l-3.103,20.148l-17.044,23.246
			c0,0-29.446,13.951-34.099,15.498c-4.649,1.548-23.245-6.199-23.245-6.199l4.647-24.796L639.648,793.029z"/>
		<path opacity="0.4" fill="#1C75BC" d="M644.069,712.005l-33.342,24.163l2.629,37.425l-8.262,9.371l-14.905-13.902l-9.61-27.184
			c0,0,5.056-32.186,6.39-36.899c1.338-4.717,18.216-15.723,18.216-15.723l17.873,17.804L644.069,712.005z"/>
		<polygon opacity="0.4" fill="#1C75BC" points="650.5,549.712 687.691,571.407 709.395,611.703 696.994,641.147 709.395,656.645 
			679.945,641.147 642.752,653.548 631.901,672.146 616.405,648.9 635.003,627.2 619.503,607.056 		"/>
		<path opacity="0.4" fill="#1C75BC" d="M511.016,628.751l9.303,51.143l26.348,6.199l32.544,13.947h38.745
			c0,0,20.148-35.646,12.397-34.094c-7.747,1.549-23.247-23.247-23.247-23.247l12.397-10.85v-24.794l-32.546,3.097l-27.896-3.097
			l-41.844,18.597"/>
		<polyline opacity="0.4" fill="#1C75BC" points="574.56,588.454 597.809,590.005 619.503,607.056 627.255,577.604 605.557,568.31 
			577.661,582.255 		"/>
		<polyline opacity="0.4" fill="#1C75BC" points="609.256,760.557 587.508,752.206 571.816,729.505 555.71,755.343 573.691,770.642 
			604.463,765.563 		"/>
		<polygon opacity="0.4" fill="#1C75BC" points="596.259,538.862 586.957,526.462 607.105,510.964 630.353,506.317 631.333,523.506 
			645.851,537.313 		"/>
		<polyline opacity="0.4" fill="#1C75BC" points="893.82,760.484 957.36,757.382 996.104,746.535 1028.649,763.583 1025.552,796.13 
			1002.304,802.325 993.006,820.927 968.209,800.778 932.563,782.183 889.17,754.285 		"/>
		<polyline opacity="0.4" fill="#1C75BC" points="721.996,520.555 952.946,153.27 986.74,385.728 		"/>
		<polygon opacity="0.4" fill="#1C75BC" points="801.857,608.738 934.357,371.628 966.903,513.429 		"/>
		<path opacity="0.4" fill="#1C75BC" d="M801.857,627.334c-2.325-30.22-13.954-160.395-20.921-158.07
			c-6.974,2.325-137.148,86.009-137.148,86.009L801.857,627.334z"/>
		<path opacity="0.4" fill="#1C75BC" d="M288.125,720.321"/>
		<polygon opacity="0.4" fill="#1C75BC" points="780.937,808.653 964.578,824.922 892.516,866.767 		"/>
		<polygon opacity="0.4" fill="#1C75BC" points="713.522,855.144 773.963,820.273 732.119,908.609 		"/>
		<path opacity="0.4" fill="#1C75BC" d="M702.974,623.933c0,0-52.99-58.691-57.814-63.728c-4.821-5.039-20.286,25.867-20.286,25.867
			L702.974,623.933z"/>
		<polygon opacity="0.4" fill="#1C75BC" points="620.201,320.489 659.808,483.212 690.282,436.717 		"/>
		<polygon opacity="0.4" fill="#1C75BC" points="508.686,371.541 437.008,520.714 483.22,496.919 		"/>
		<polyline opacity="0.4" fill="#1C75BC" points="543.83,346.061 513.61,478.563 562.423,373.954 550.805,336.76 		"/>
		<path opacity="0.4" fill="#1C75BC" d="M339.268,576.195l-16.274,81.359c0,0,39.519-4.646,34.868-11.625
			C353.214,638.957,339.268,576.195,339.268,576.195z"/>
		<polyline opacity="0.4" fill="#1C75BC" points="313.694,834.224 213.738,913.261 355.539,843.521 309.046,824.922 		"/>
		<polygon opacity="0.4" fill="#1C75BC" points="306.723,717.996 325.316,776.108 336.943,720.321 		"/>
		<polygon opacity="0.4" fill="#1C75BC" points="474.09,792.379 504.311,776.108 520.581,841.198 		"/>
		<polygon opacity="0.4" fill="#1C75BC" points="736.767,613.391 764.663,680.802 820.455,659.879 776.286,650.581 		"/>
		<polyline opacity="0.4" fill="#1C75BC" points="978.525,473.912 969.228,520.403 887.867,604.091 869.271,717.996 		"/>
		<polygon opacity="0.4" fill="#1C75BC" points="467.119,645.93 464.794,720.321 488.039,699.397 		"/>
		<polygon opacity="0.4" fill="#1C75BC" points="439.48,706.574 432.355,632.491 411.952,656.191 		"/>
		<polygon opacity="0.4" fill="#1C75BC" points="979.32,640.512 912.495,607.759 921.983,637.558 		"/>
		<polygon opacity="0.4" fill="#1C75BC" points="343.916,711.018 404.352,762.158 429.923,731.942 		"/>
		<polygon opacity="0.4" fill="#1C75BC" points="343.67,759.21 393.52,697.7 362.764,672.775 		"/>
		<polyline opacity="0.4" fill="#1C75BC" points="553.127,662.202 601.942,706.37 639.135,666.854 564.749,659.879 		"/>
		<path opacity="0.4" fill="#1C75BC" d="M459.868,783.191l16.568-18.222l-5.253-11.699l-4.117-16.267l-11.156-14.579
			c0,0-19.216,2.681-16.402,5.151c2.818,2.467-2.06,15.438-2.06,15.438l-7.65-1.543l-9.332,7.142l10.537,11.351l6.865,11.392
			l19.044,10.397"/>
		<polyline opacity="0.4" fill="#1C75BC" points="454.134,788.708 456.703,757.623 431.123,755.001 449.913,785.007 		"/>
		<polygon opacity="0.4" fill="#1C75BC" points="327.642,783.083 355.539,845.846 388.084,815.626 		"/>
		<polygon opacity="0.4" fill="#1C75BC" points="656.758,934.576 737.514,937.096 697.462,926.291 		"/>
		<polygon opacity="0.4" fill="#1C75BC" points="728.251,938.79 680.386,931.268 650.068,938.802 684.487,941.523 702.265,946.992 
			709.787,942.889 		"/>
		<polygon opacity="0.4" fill="#1C75BC" points="653.925,449.56 617.221,286.158 585.923,332.103 		"/>
		<polygon opacity="0.4" fill="#1C75BC" points="576.666,321.256 668.412,461.364 610.487,469.898 		"/>
		<line opacity="0.48" fill="#1C75BC" x1="459.889" y1="668.376" x2="489.459" y2="713.533"/>
		<g>
			<polygon opacity="0.4" fill="#1C75BC" points="120.888,1011.864 117.768,1002.47 105.71,1010.758 106.167,1018.23 			"/>
			<polygon opacity="0.4" fill="#1C75BC" points="88.479,1000.887 94.18,1007.441 103.485,994.406 92.24,999.919 			"/>
			<polygon opacity="0.4" fill="#1C75BC" points="153.579,998.1 146.875,997.319 133.602,1011.184 142.983,1006.361 			"/>
			<polygon opacity="0.4" fill="#1C75BC" points="157.425,989.371 161.198,992.252 164.895,982.346 164.63,981.213 			"/>
			<polygon opacity="0.4" fill="#1C75BC" points="59.429,991.861 64.818,995.977 64.22,988.821 64.807,987.645 			"/>
			<polygon opacity="0.4" fill="#1C75BC" points="74.648,1003.377 78.424,1006.256 80.062,1001.248 79.652,1001.248 			"/>
		</g>
		<polygon opacity="0.4" fill="#1C75BC" points="231.502,386.354 280.317,360.783 264.05,311.968 238.48,335.211 203.608,318.942 
			187.338,349.159 208.259,351.485 198.961,370.082 		"/>
		<polygon opacity="0.4" fill="#1C75BC" points="211.415,325.138 239.308,387.903 271.851,357.685 		"/>
	</g>
	<g>
		<polygon opacity="0.4" fill="#1C75BC" points="559.483,757.32 587.71,792.521 647.484,839.011 653.129,817.094 638.188,756.534 		
			"/>
		<polygon opacity="0.4" fill="#1C75BC" points="536.072,750.845 565.294,794.35 632.208,851.629 621.997,872.799 646.155,866.323 
			662.762,844.927 603.154,802.166 563.967,756.49 		"/>
	</g>
</g>
<g>
	<g>
		<polygon opacity="0.4" fill="#FFFFFF" points="472.528,1725.793 460.699,1673.128 447.048,1696.797 		"/>
		<polygon opacity="0.4" fill="#FFFFFF" points="470.159,1721.979 459.346,1669.095 474.624,1678.464 		"/>
		<polygon opacity="0.4" fill="#FFFFFF" points="474.666,1724.798 465.952,1671.528 480.846,1681.493 		"/>
		<polygon opacity="0.4" fill="#FFFFFF" points="481.294,1755.108 472.576,1701.838 487.471,1711.805 		"/>
		<line opacity="0.4" fill="#FFFFFF" x1="478.559" y1="1673.719" x2="470.111" y2="1727.033"/>
		<path opacity="0.4" fill="#FFFFFF" d="M339.916,1866.813l23.246-86.011l25.569-32.547l41.842-34.864l51.141,16.267l48.816-9.298
			l83.685-27.894l-9.297-76.713l123.201-139.475l223.162,162.725l13.946,79.035l-16.272,74.387l13.948,34.869l37.192,48.814
			l-30.222,60.439l-30.218-6.975c0,0,4.647-37.194-2.325-48.813c-6.974-11.623-48.815-34.874-48.815-34.874
			s-60.437-25.564-67.412-20.92c-6.974,4.651-34.87,16.272-48.817,9.303c-13.946-6.975-37.191-25.573-37.191-25.573l-55.792,13.949
			l32.543,53.464c0,0-2.323,41.843,11.625,51.14c13.945,9.3-4.651,16.273-4.651,16.273l-13.943-6.974l-67.413-30.22
			c0,0-25.572-32.545-34.87-32.545c-9.3,0-76.708-23.247-76.708-23.247l-30.223-18.594l9.297,51.141l4.651,44.165l-16.273,6.976
			l-76.711-23.248l-69.737,37.197"/>
		<polygon opacity="0.4" fill="#FFFFFF" points="827.247,1260.869 929.524,1284.116 894.656,1379.423 971.371,1544.471 
			1010.885,1667.676 938.825,1672.323 883.035,1751.355 945.799,1788.552 985.317,1844.341 876.063,1865.261 813.297,1825.741 
			838.87,1753.68 697.07,1711.837 627.333,1623.506 662.201,1518.896 585.489,1367.802 692.425,1393.371 694.744,1423.59 
			645.927,1430.566 678.476,1484.029 727.291,1456.136 743.561,1395.695 780.754,1391.045 778.428,1312.009 808.65,1356.178 
			834.218,1307.361 		"/>
		<polygon opacity="0.4" fill="#FFFFFF" points="439.042,1653.724 485.534,1611.885 483.208,1528.198 515.754,1430.566 
			559.921,1388.721 571.543,1344.555 440.375,1562.403 412.479,1576.871 418.119,1621.183 		"/>
		<polygon opacity="0.4" fill="#FFFFFF" points="285.619,1818.771 330.343,1795.391 369.303,1767.63 397.198,1809.469 
			443.689,1825.741 420.445,1846.669 425.094,1862.936 408.823,1883.86 427.42,1907.104 415.794,1932.674 380.928,1914.078 
			366.98,1946.62 322.812,1930.349 297.24,1916.403 318.166,1874.559 308.646,1852.734 320.489,1837.364 		"/>
		<path opacity="0.4" fill="#FFFFFF" d="M593.809,1863.583l26.344-41.845l24.799,13.946l21.698-24.795l27.896,23.247
			c0,0,7.747,7.751,12.399,18.598c4.646,10.849,20.147-6.199,20.147-6.199s-7.752,18.6-9.302,26.346
			c-1.548,7.753-30.995,15.499-30.995,15.499l-23.247,7.75l-48.045-20.148L593.809,1863.583z"/>
		<polygon opacity="0.4" fill="#FFFFFF" points="606.207,1978.267 651.147,1942.625 696.096,1936.422 658.899,1964.321 
			666.649,1995.314 692.994,2006.164 638.752,2007.715 		"/>
		<polygon opacity="0.4" fill="#FFFFFF" points="197.06,1897.678 238.902,1931.774 217.207,1973.619 200.158,2009.263 
			221.858,2038.709 254.402,2032.512 293.147,2041.81 317.942,2009.263 317.942,1981.369 352.038,1962.768 372.186,1947.271 
			297.795,1927.124 268.349,1908.526 		"/>
		<polygon opacity="0.4" fill="#FFFFFF" points="483.772,1629.817 500.286,1486.795 539.511,1379.529 582.858,1374.166 
			603.505,1408.135 578.733,1422.436 605.567,1426.011 584.924,1465.342 545.7,1535.064 574.605,1588.7 551.897,1628.031 
			545.7,1679.875 506.481,1697.756 487.902,1661.997 		"/>
		<polygon opacity="0.4" fill="#FFFFFF" points="615.503,1810.89 632.551,1758.196 686.795,1753.548 705.395,1769.047 
			696.096,1725.652 734.84,1711.703 764.285,1744.248 790.63,1748.9 813.875,1748.9 827.825,1775.248 787.531,1820.189 
			813.297,1825.741 784.433,1849.636 762.735,1841.888 770.484,1818.64 703.841,1798.491 666.649,1795.391 657.348,1806.239 
			641.851,1815.539 		"/>
		<path opacity="0.4" fill="#FFFFFF" d="M785.981,1911.629l-86.79,38.742l17.051,54.243l48.043,13.948l38.743,4.649l18.599-23.245
			l37.195,12.398l20.148-23.25l51.141,1.552l52.695-20.146l-12.397-40.296l-32.546-41.845c0,0-30.995,17.048-43.396,20.146
			c-12.398,3.103-75.941,1.55-83.689,0C803.028,1906.978,785.981,1911.629,785.981,1911.629z"/>
		<path opacity="0.4" fill="#FFFFFF" d="M220.307,1742.699c0,0,27.896-9.3,24.795-13.948c-3.1-4.647-18.598-27.896-18.598-27.896
			l27.898-13.948l15.497-13.949l-3.099,32.545l21.697-3.099l-10.848,35.646L220.307,1742.699z"/>
		<path opacity="0.4" fill="#FFFFFF" d="M321.043,1607.869l-24.795,40.293c0,0,1.547,35.644,6.197,35.644
			c4.649,0,15.497,26.347,15.497,26.347l-13.948,17.048l17.049,7.748l-27.896,15.499l-1.551,27.897l30.998,1.549l44.943-3.099
			l7.748-24.796l-29.447-37.197l-7.747-51.145l-32.548-4.649l18.599-10.846L321.043,1607.869z"/>
		<polygon opacity="0.4" fill="#FFFFFF" points="617.053,1700.854 646.5,1649.712 679.048,1686.906 699.191,1702.403 
			689.896,1727.2 699.191,1751.999 655.799,1744.248 624.802,1759.747 617.053,1741.147 		"/>
		<polygon opacity="0.4" fill="#FFFFFF" points="892.918,1731.85 933.212,1688.454 962.657,1727.2 971.958,1761.296 
			951.812,1778.347 936.313,1750.447 913.063,1756.645 		"/>
		<path opacity="0.4" fill="#FFFFFF" d="M200.158,2018.563c-4.65,0-26.346-1.55-26.346-1.55l17.048-24.797l-13.948-27.895
			l18.596-17.051l3.099-18.597l40.295,3.101l-26.346,48.045L200.158,2018.563z"/>
		<path opacity="0.4" fill="#FFFFFF" d="M429.526,1916.275c4.653,0,26.347-7.749,26.347-7.749l30.997,34.099l41.844,27.896
			l27.896,24.794l-6.199,30.996l-20.146-1.55l-23.249-1.549l38.748,23.249v-10.853l21.697-17.046l10.85-23.248l-13.949-21.695
			l27.897,10.849l-12.4-21.7l-34.095-6.197l-24.798-26.346l-24.795-27.899l18.599-23.243v-15.499l-41.846-4.649l-20.149,17.048
			h-24.797l-3.098,20.148L429.526,1916.275z"/>
		<polyline opacity="0.4" fill="#FFFFFF" points="421.781,1745.8 398.532,1782.99 437.277,1821.738 438.827,1846.535 
			471.374,1848.086 502.37,1841.888 510.117,1821.738 474.476,1795.391 516.318,1779.894 510.117,1736.498 474.476,1717.902 
			446.575,1696.202 448.126,1744.248 427.978,1742.699 		"/>
		<path opacity="0.4" fill="#FFFFFF" d="M635.648,1893.029l38.746,13.948l29.446-23.245l12.401,1.547l-3.103,20.148l-17.044,23.246
			c0,0-29.446,13.951-34.099,15.498c-4.649,1.548-23.245-6.199-23.245-6.199l4.647-24.796L635.648,1893.029z"/>
		<path opacity="0.4" fill="#FFFFFF" d="M640.069,1812.005l-33.342,24.163l2.629,37.425l-8.262,9.371l-14.905-13.902l-9.61-27.184
			c0,0,5.056-32.186,6.39-36.899c1.338-4.717,18.216-15.723,18.216-15.723l17.873,17.804L640.069,1812.005z"/>
		<polygon opacity="0.4" fill="#FFFFFF" points="646.5,1649.712 683.691,1671.407 705.395,1711.703 692.994,1741.147 
			705.395,1756.645 675.945,1741.147 638.752,1753.548 627.901,1772.146 612.405,1748.9 631.003,1727.2 615.503,1707.056 		"/>
		<path opacity="0.4" fill="#FFFFFF" d="M507.016,1728.751l9.303,51.143l26.348,6.199l32.544,13.947h38.745
			c0,0,20.148-35.646,12.397-34.094c-7.747,1.549-23.247-23.247-23.247-23.247l12.397-10.85v-24.794l-32.546,3.097l-27.896-3.097
			l-41.844,18.597"/>
		<polyline opacity="0.4" fill="#FFFFFF" points="570.56,1688.454 593.809,1690.005 615.503,1707.056 623.255,1677.604 
			601.557,1668.31 573.661,1682.255 		"/>
		<polyline opacity="0.4" fill="#FFFFFF" points="605.256,1860.557 583.508,1852.206 567.816,1829.505 551.71,1855.343 
			569.691,1870.642 600.463,1865.563 		"/>
		<polygon opacity="0.4" fill="#FFFFFF" points="592.259,1638.862 582.957,1626.462 603.105,1610.964 626.353,1606.317 
			627.333,1623.506 641.851,1637.313 		"/>
		<polyline opacity="0.4" fill="#FFFFFF" points="889.82,1860.484 953.36,1857.382 992.104,1846.535 1024.649,1863.583 
			1021.552,1896.13 998.304,1902.325 989.006,1920.927 964.209,1900.778 928.563,1882.183 885.17,1854.285 		"/>
		<polyline opacity="0.4" fill="#FFFFFF" points="717.996,1620.555 948.946,1253.27 982.74,1485.728 		"/>
		<polygon opacity="0.4" fill="#FFFFFF" points="797.857,1708.738 930.357,1471.629 962.903,1613.429 		"/>
		<path opacity="0.4" fill="#FFFFFF" d="M797.857,1727.334c-2.325-30.22-13.954-160.395-20.921-158.07
			c-6.974,2.325-137.148,86.01-137.148,86.01L797.857,1727.334z"/>
		<path opacity="0.4" fill="#FFFFFF" d="M284.125,1820.321"/>
		<polygon opacity="0.4" fill="#FFFFFF" points="776.937,1908.653 960.578,1924.922 888.516,1966.767 		"/>
		<polygon opacity="0.4" fill="#FFFFFF" points="709.522,1955.144 769.963,1920.273 728.119,2008.609 		"/>
		<path opacity="0.4" fill="#FFFFFF" d="M698.974,1723.933c0,0-52.99-58.691-57.814-63.728
			c-4.821-5.039-20.286,25.867-20.286,25.867L698.974,1723.933z"/>
		<polygon opacity="0.4" fill="#FFFFFF" points="616.201,1420.488 655.808,1583.212 686.282,1536.717 		"/>
		<polygon opacity="0.4" fill="#FFFFFF" points="504.686,1471.541 433.008,1620.714 479.22,1596.919 		"/>
		<polyline opacity="0.4" fill="#FFFFFF" points="539.83,1446.061 509.61,1578.563 558.423,1473.953 546.805,1436.76 		"/>
		<path opacity="0.4" fill="#FFFFFF" d="M335.268,1676.195l-16.274,81.359c0,0,39.519-4.646,34.868-11.625
			C349.214,1738.957,335.268,1676.195,335.268,1676.195z"/>
		<polyline opacity="0.4" fill="#FFFFFF" points="309.694,1934.224 209.738,2013.261 351.539,1943.521 305.046,1924.922 		"/>
		<polygon opacity="0.4" fill="#FFFFFF" points="302.723,1817.996 321.316,1876.108 332.943,1820.321 		"/>
		<polygon opacity="0.4" fill="#FFFFFF" points="470.09,1892.379 500.311,1876.108 516.581,1941.198 		"/>
		<polygon opacity="0.4" fill="#FFFFFF" points="732.767,1713.391 760.663,1780.802 816.455,1759.879 772.286,1750.581 		"/>
		<polyline opacity="0.4" fill="#FFFFFF" points="974.525,1573.912 965.228,1620.403 883.867,1704.091 865.271,1817.996 		"/>
		<polygon opacity="0.4" fill="#FFFFFF" points="463.119,1745.93 460.794,1820.321 484.039,1799.397 		"/>
		<polygon opacity="0.4" fill="#FFFFFF" points="435.48,1806.574 428.355,1732.491 407.952,1756.191 		"/>
		<polygon opacity="0.4" fill="#FFFFFF" points="975.32,1740.512 908.495,1707.759 917.983,1737.558 		"/>
		<polygon opacity="0.4" fill="#FFFFFF" points="339.916,1811.018 400.352,1862.158 425.923,1831.942 		"/>
		<polygon opacity="0.4" fill="#FFFFFF" points="339.67,1859.21 389.52,1797.7 358.764,1772.775 		"/>
		<polyline opacity="0.4" fill="#FFFFFF" points="549.127,1762.202 597.942,1806.37 635.135,1766.854 560.749,1759.879 		"/>
		<path opacity="0.4" fill="#FFFFFF" d="M455.868,1883.191l16.568-18.222l-5.253-11.699l-4.117-16.267l-11.156-14.579
			c0,0-19.216,2.681-16.402,5.151c2.818,2.467-2.06,15.438-2.06,15.438l-7.65-1.543l-9.332,7.142l10.537,11.351l6.865,11.392
			l19.044,10.397"/>
		<polyline opacity="0.4" fill="#FFFFFF" points="450.134,1888.708 452.703,1857.623 427.123,1855.001 445.913,1885.007 		"/>
		<polygon opacity="0.4" fill="#FFFFFF" points="323.642,1883.083 351.539,1945.846 384.084,1915.626 		"/>
		<polygon opacity="0.4" fill="#FFFFFF" points="652.758,2034.576 733.514,2037.096 693.462,2026.291 		"/>
		<polygon opacity="0.4" fill="#FFFFFF" points="724.251,2038.79 676.386,2031.268 646.068,2038.802 680.487,2041.523 
			698.265,2046.992 705.787,2042.889 		"/>
		<polygon opacity="0.4" fill="#FFFFFF" points="649.925,1549.561 613.221,1386.158 581.923,1432.104 		"/>
		<polygon opacity="0.4" fill="#FFFFFF" points="572.666,1421.256 664.412,1561.363 606.487,1569.898 		"/>
		<line opacity="0.48" fill="#FFFFFF" x1="455.889" y1="1768.376" x2="485.459" y2="1813.533"/>
		<g>
			<polygon opacity="0.4" fill="#FFFFFF" points="116.888,2111.864 113.768,2102.47 101.71,2110.758 102.167,2118.23 			"/>
			<polygon opacity="0.4" fill="#FFFFFF" points="84.479,2100.887 90.18,2107.441 99.485,2094.406 88.24,2099.919 			"/>
			<polygon opacity="0.4" fill="#FFFFFF" points="149.579,2098.1 142.875,2097.319 129.602,2111.184 138.983,2106.361 			"/>
			<polygon opacity="0.4" fill="#FFFFFF" points="153.425,2089.371 157.198,2092.252 160.895,2082.346 160.63,2081.213 			"/>
			<polygon opacity="0.4" fill="#FFFFFF" points="55.429,2091.861 60.818,2095.977 60.22,2088.821 60.807,2087.645 			"/>
			<polygon opacity="0.4" fill="#FFFFFF" points="70.648,2103.377 74.424,2106.256 76.062,2101.248 75.652,2101.248 			"/>
		</g>
		<polygon opacity="0.4" fill="#FFFFFF" points="227.502,1486.354 276.317,1460.783 260.05,1411.968 234.48,1435.211 
			199.608,1418.942 183.338,1449.158 204.259,1451.484 194.961,1470.082 		"/>
		<polygon opacity="0.4" fill="#FFFFFF" points="207.415,1425.138 235.308,1487.902 267.851,1457.685 		"/>
	</g>
	<g>
		<polygon opacity="0.4" fill="#FFFFFF" points="555.483,1857.32 583.71,1892.521 643.484,1939.011 649.129,1917.094 
			634.188,1856.534 		"/>
		<polygon opacity="0.4" fill="#FFFFFF" points="532.072,1850.845 561.294,1894.35 628.208,1951.629 617.997,1972.799 
			642.155,1966.323 658.762,1944.927 599.154,1902.166 559.967,1856.49 		"/>
	</g>
</g>
<g>
	<g>
		<polygon opacity="0.4" fill="#72BF44" points="362.202,118.651 360.119,109.378 357.715,113.546 		"/>
		<polygon opacity="0.4" fill="#72BF44" points="361.784,117.98 359.88,108.668 362.57,110.319 		"/>
		<polygon opacity="0.4" fill="#72BF44" points="362.578,118.477 361.043,109.096 363.666,110.852 		"/>
		<polygon opacity="0.4" fill="#72BF44" points="363.745,123.813 362.209,114.434 364.833,116.188 		"/>
		<line opacity="0.4" fill="#72BF44" x1="363.263" y1="109.483" x2="361.775" y2="118.87"/>
		<path opacity="0.4" fill="#72BF44" d="M338.852,143.481l4.092-15.145l4.503-5.729l7.367-6.14l9.004,2.864l8.595-1.638l14.734-4.91
			l-1.637-13.506l21.692-24.559l39.293,28.65l2.456,13.917l-2.865,13.097l2.456,6.141l6.549,8.594l-5.321,10.642l-5.321-1.228
			c0,0,0.818-6.55-0.41-8.595c-1.227-2.047-8.594-6.14-8.594-6.14s-10.642-4.502-11.87-3.685c-1.228,0.819-6.139,2.864-8.595,1.638
			c-2.455-1.227-6.548-4.503-6.548-4.503l-9.823,2.458l5.73,9.412c0,0-0.409,7.367,2.046,9.006c2.456,1.636-0.818,2.863-0.818,2.863
			l-2.456-1.228l-11.87-5.32c0,0-4.502-5.73-6.14-5.73c-1.637,0-13.506-4.093-13.506-4.093l-5.321-3.274l1.637,9.005l0.819,7.777
			l-2.866,1.227l-13.506-4.093l-12.279,6.549"/>
		<polygon opacity="0.4" fill="#72BF44" points="424.657,36.792 442.665,40.885 436.526,57.665 450.034,86.726 456.991,108.419 
			444.303,109.237 434.48,123.152 445.531,129.702 452.489,139.524 433.252,143.208 422.201,136.25 426.704,123.561 
			401.737,116.194 389.458,100.642 395.598,82.223 382.09,55.62 400.918,60.122 401.327,65.443 392.732,66.67 398.463,76.084 
			407.058,71.172 409.922,60.532 416.471,59.711 416.061,45.795 421.383,53.573 425.885,44.977 		"/>
		<polygon opacity="0.4" fill="#72BF44" points="356.305,105.962 364.491,98.596 364.082,83.861 369.812,66.67 377.589,59.302 
			379.635,51.527 356.54,89.883 351.628,92.43 352.622,100.233 		"/>
		<polygon opacity="0.4" fill="#72BF44" points="329.292,135.023 337.167,130.907 344.026,126.018 348.938,133.385 357.124,136.25 
			353.031,139.934 353.849,142.799 350.984,146.483 354.259,150.575 352.212,155.078 346.073,151.803 343.617,157.533 
			335.84,154.668 331.338,152.212 335.022,144.844 333.346,141.002 335.431,138.295 		"/>
		<path opacity="0.4" fill="#72BF44" d="M383.555,142.913l4.639-7.367L392.56,138l3.82-4.365l4.912,4.092
			c0,0,1.364,1.365,2.183,3.275c0.818,1.91,3.547-1.092,3.547-1.092s-1.365,3.275-1.638,4.639c-0.272,1.365-5.457,2.73-5.457,2.73
			l-4.093,1.363l-8.459-3.548L383.555,142.913z"/>
		<polygon opacity="0.4" fill="#72BF44" points="385.738,163.105 393.651,156.831 401.565,155.737 395.016,160.649 396.38,166.107 
			401.019,168.017 391.469,168.29 		"/>
		<polygon opacity="0.4" fill="#72BF44" points="313.699,148.916 321.066,154.919 317.246,162.287 314.244,168.563 318.065,173.747 
			323.795,172.656 330.617,174.293 334.982,168.563 334.982,163.651 340.986,160.375 344.534,157.647 331.436,154.1 
			326.251,150.827 		"/>
		<polygon opacity="0.4" fill="#72BF44" points="364.181,101.752 367.089,76.571 373.995,57.684 381.627,56.74 385.263,62.72 
			380.901,65.239 385.626,65.868 381.991,72.793 375.085,85.071 380.174,94.514 376.176,101.438 375.085,110.567 368.179,113.715 
			364.909,107.418 		"/>
		<polygon opacity="0.4" fill="#72BF44" points="387.375,133.635 390.376,124.357 399.928,123.54 403.202,126.268 401.565,118.626 
			408.387,116.17 413.571,121.901 418.21,122.719 422.303,122.719 424.759,127.359 417.664,135.273 422.201,136.25 417.119,140.458 
			413.298,139.092 414.663,134.999 402.929,131.452 396.38,130.907 394.743,132.816 392.014,134.454 		"/>
		<path opacity="0.4" fill="#72BF44" d="M417.391,151.373l-15.281,6.821l3.002,9.551l8.459,2.455l6.822,0.818l3.274-4.092
			l6.549,2.183l3.547-4.094l9.004,0.272l9.278-3.547l-2.183-7.095l-5.73-7.366c0,0-5.458,3-7.641,3.547
			c-2.183,0.546-13.371,0.271-14.735,0C420.393,150.553,417.391,151.373,417.391,151.373z"/>
		<path opacity="0.4" fill="#72BF44" d="M317.792,121.628c0,0,4.912-1.638,4.366-2.456c-0.545-0.818-3.274-4.912-3.274-4.912
			l4.912-2.455l2.729-2.457l-0.545,5.73l3.82-0.546l-1.91,6.276L317.792,121.628z"/>
		<path opacity="0.4" fill="#72BF44" d="M335.529,97.888l-4.366,7.095c0,0,0.272,6.275,1.091,6.275c0.818,0,2.728,4.639,2.728,4.639
			l-2.456,3.002l3.002,1.363l-4.912,2.73l-0.273,4.912l5.458,0.272l7.913-0.546l1.364-4.367l-5.185-6.549l-1.364-9.004l-5.731-0.818
			l3.274-1.91L335.529,97.888z"/>
		<polygon opacity="0.4" fill="#72BF44" points="387.648,114.26 392.833,105.256 398.563,111.805 402.11,114.533 400.474,118.899 
			402.11,123.264 394.47,121.901 389.012,124.629 387.648,121.355 		"/>
		<polygon opacity="0.4" fill="#72BF44" points="436.22,119.717 443.314,112.078 448.499,118.899 450.137,124.903 446.59,127.905 
			443.86,122.993 439.767,124.084 		"/>
		<path opacity="0.4" fill="#72BF44" d="M314.244,170.2c-0.818,0-4.638-0.271-4.638-0.271l3.001-4.367l-2.455-4.912l3.274-3.002
			l0.546-3.273l7.095,0.546l-4.639,8.46L314.244,170.2z"/>
		<path opacity="0.4" fill="#72BF44" d="M354.63,152.19c0.819,0,4.639-1.363,4.639-1.363l5.458,6.004l7.367,4.91l4.912,4.366
			l-1.091,5.458l-3.547-0.273l-4.094-0.273l6.822,4.095v-1.911l3.82-3.002l1.911-4.093l-2.457-3.82l4.912,1.909l-2.183-3.82
			l-6.003-1.091l-4.366-4.639l-4.365-4.912l3.274-4.093v-2.729l-7.368-0.818l-3.548,3.001h-4.366l-0.545,3.548L354.63,152.19z"/>
		<polyline opacity="0.4" fill="#72BF44" points="353.266,122.174 349.173,128.722 355.995,135.545 356.267,139.911 
			361.998,140.184 367.456,139.092 368.819,135.545 362.544,130.907 369.911,128.177 368.819,120.538 362.544,117.262 
			357.632,113.442 357.905,121.901 354.357,121.628 		"/>
		<path opacity="0.4" fill="#72BF44" d="M390.922,148.097l6.822,2.456l5.185-4.094l2.184,0.273l-0.546,3.547l-3.001,4.094
			c0,0-5.185,2.457-6.004,2.729c-0.818,0.273-4.092-1.091-4.092-1.091l0.818-4.367L390.922,148.097z"/>
		<path opacity="0.4" fill="#72BF44" d="M391.7,133.832l-5.871,4.254l0.463,6.59l-1.455,1.649l-2.625-2.447l-1.691-4.787
			c0,0,0.89-5.667,1.125-6.496c0.235-0.832,3.207-2.769,3.207-2.769l3.147,3.136L391.7,133.832z"/>
		<polygon opacity="0.4" fill="#72BF44" points="392.833,105.256 399.381,109.076 403.202,116.17 401.019,121.355 403.202,124.084 
			398.018,121.355 391.469,123.54 389.558,126.813 386.83,122.719 390.104,118.899 387.375,115.352 		"/>
		<path opacity="0.4" fill="#72BF44" d="M368.273,119.172l1.638,9.005l4.639,1.091l5.73,2.456h6.822c0,0,3.547-6.275,2.183-6.003
			c-1.364,0.273-4.093-4.093-4.093-4.093l2.183-1.911v-4.365l-5.73,0.545l-4.912-0.545l-7.367,3.274"/>
		<polyline opacity="0.4" fill="#72BF44" points="379.462,112.078 383.555,112.35 387.375,115.352 388.74,110.167 384.919,108.531 
			380.008,110.986 		"/>
		<polyline opacity="0.4" fill="#72BF44" points="385.571,142.379 381.742,140.909 378.979,136.913 376.143,141.461 
			379.309,144.155 384.727,143.26 		"/>
		<polygon opacity="0.4" fill="#72BF44" points="383.282,103.346 381.645,101.163 385.192,98.433 389.285,97.616 389.458,100.642 
			392.014,103.073 		"/>
		<polyline opacity="0.4" fill="#72BF44" points="435.674,142.368 446.862,141.821 453.684,139.911 459.414,142.913 
			458.869,148.643 454.775,149.734 453.139,153.008 448.772,149.461 442.496,146.188 434.856,141.275 		"/>
		<polyline opacity="0.4" fill="#72BF44" points="405.421,100.123 446.085,35.454 452.035,76.382 		"/>
		<polygon opacity="0.4" fill="#72BF44" points="419.482,115.649 442.813,73.9 448.542,98.868 		"/>
		<path opacity="0.4" fill="#72BF44" d="M419.482,118.922c-0.41-5.32-2.457-28.24-3.684-27.832
			c-1.228,0.41-24.148,15.145-24.148,15.145L419.482,118.922z"/>
		<path opacity="0.4" fill="#72BF44" d="M329.028,135.295"/>
		<polygon opacity="0.4" fill="#72BF44" points="415.799,150.848 448.133,153.711 435.445,161.081 		"/>
		<polygon opacity="0.4" fill="#72BF44" points="403.929,159.034 414.571,152.895 407.203,168.448 		"/>
		<path opacity="0.4" fill="#72BF44" d="M402.072,118.325c0,0-9.33-10.334-10.18-11.221c-0.849-0.888-3.571,4.555-3.571,4.555
			L402.072,118.325z"/>
		<polygon opacity="0.4" fill="#72BF44" points="387.498,64.897 394.472,93.546 399.837,85.36 		"/>
		<polygon opacity="0.4" fill="#72BF44" points="367.863,73.885 355.243,100.151 363.379,95.961 		"/>
		<polyline opacity="0.4" fill="#72BF44" points="374.051,69.399 368.73,92.729 377.325,74.309 375.279,67.761 		"/>
		<path opacity="0.4" fill="#72BF44" d="M338.034,109.918l-2.865,14.325c0,0,6.958-0.817,6.139-2.046
			C340.489,120.969,338.034,109.918,338.034,109.918z"/>
		<polyline opacity="0.4" fill="#72BF44" points="333.53,155.35 315.932,169.266 340.898,156.987 332.712,153.711 		"/>
		<polygon opacity="0.4" fill="#72BF44" points="332.303,134.885 335.577,145.118 337.624,135.295 		"/>
		<polygon opacity="0.4" fill="#72BF44" points="361.772,147.982 367.093,145.118 369.958,156.579 		"/>
		<polygon opacity="0.4" fill="#72BF44" points="408.022,116.467 412.934,128.336 422.757,124.653 414.98,123.016 		"/>
		<polyline opacity="0.4" fill="#72BF44" points="450.589,91.911 448.952,100.095 434.626,114.83 431.352,134.885 		"/>
		<polygon opacity="0.4" fill="#72BF44" points="360.544,122.198 360.135,135.295 364.228,131.612 		"/>
		<polygon opacity="0.4" fill="#72BF44" points="355.678,132.875 354.424,119.831 350.831,124.003 		"/>
		<polygon opacity="0.4" fill="#72BF44" points="450.729,121.243 438.962,115.476 440.633,120.724 		"/>
		<polygon opacity="0.4" fill="#72BF44" points="338.852,133.657 349.493,142.662 353.996,137.341 		"/>
		<polygon opacity="0.4" fill="#72BF44" points="338.809,142.143 347.586,131.313 342.17,126.924 		"/>
		<polyline opacity="0.4" fill="#72BF44" points="375.688,125.063 384.283,132.838 390.832,125.881 377.734,124.653 		"/>
		<path opacity="0.4" fill="#72BF44" d="M359.268,146.365l2.917-3.208l-0.925-2.06l-0.725-2.864l-1.964-2.566
			c0,0-3.383,0.473-2.888,0.906c0.496,0.434-0.363,2.719-0.363,2.719l-1.347-0.271l-1.643,1.258l1.855,1.997l1.208,2.005
			l3.354,1.832"/>
		<polyline opacity="0.4" fill="#72BF44" points="358.258,147.336 358.71,141.864 354.207,141.402 357.515,146.685 		"/>
		<polygon opacity="0.4" fill="#72BF44" points="335.986,146.346 340.898,157.397 346.628,152.076 		"/>
		<polygon opacity="0.4" fill="#72BF44" points="393.935,173.02 408.154,173.463 401.102,171.561 		"/>
		<polygon opacity="0.4" fill="#72BF44" points="406.522,173.762 398.095,172.436 392.757,173.763 398.817,174.243 401.947,175.207 
			403.271,174.483 		"/>
		<polygon opacity="0.4" fill="#72BF44" points="393.436,87.622 386.973,58.851 381.462,66.942 		"/>
		<polygon opacity="0.4" fill="#72BF44" points="379.833,65.031 395.986,89.7 385.788,91.204 		"/>
		<line opacity="0.48" fill="#72BF44" x1="359.271" y1="126.149" x2="364.478" y2="134.1"/>
		<g>
			<polygon opacity="0.4" fill="#72BF44" points="299.583,186.628 299.034,184.973 296.911,186.433 296.991,187.749 			"/>
			<polygon opacity="0.4" fill="#72BF44" points="293.876,184.694 294.88,185.848 296.519,183.553 294.539,184.524 			"/>
			<polygon opacity="0.4" fill="#72BF44" points="305.339,184.204 304.159,184.067 301.822,186.508 303.473,185.659 			"/>
			<polygon opacity="0.4" fill="#72BF44" points="306.016,182.668 306.681,183.174 307.332,181.43 307.285,181.231 			"/>
			<polygon opacity="0.4" fill="#72BF44" points="288.762,183.106 289.711,183.831 289.605,182.571 289.708,182.363 			"/>
			<polygon opacity="0.4" fill="#72BF44" points="291.441,185.133 292.106,185.641 292.395,184.758 292.323,184.758 			"/>
		</g>
		<polygon opacity="0.4" fill="#72BF44" points="319.059,76.494 327.654,71.991 324.79,63.396 320.288,67.489 314.147,64.624 
			311.283,69.945 314.967,70.354 313.33,73.627 		"/>
		<polygon opacity="0.4" fill="#72BF44" points="315.522,65.714 320.434,76.766 326.163,71.446 		"/>
	</g>
	<g>
		<polygon opacity="0.4" fill="#72BF44" points="376.808,141.809 381.777,148.008 392.302,156.194 393.295,152.334 390.665,141.672 
					"/>
		<polygon opacity="0.4" fill="#72BF44" points="372.685,140.668 377.831,148.331 389.612,158.415 387.814,162.143 392.068,161.002 
			394.992,157.235 384.497,149.706 377.597,141.664 		"/>
	</g>
</g>
<g>
	<g>
		<polygon opacity="0.4" fill="#FAA61A" points="120.909,121.632 118.826,112.359 116.423,116.527 		"/>
		<polygon opacity="0.4" fill="#FAA61A" points="120.492,120.961 118.588,111.649 121.278,113.3 		"/>
		<polygon opacity="0.4" fill="#FAA61A" points="121.285,121.458 119.751,112.077 122.373,113.833 		"/>
		<polygon opacity="0.4" fill="#FAA61A" points="122.452,126.794 120.917,117.415 123.54,119.169 		"/>
		<line opacity="0.4" fill="#FAA61A" x1="121.97" y1="112.464" x2="120.483" y2="121.851"/>
		<path opacity="0.4" fill="#FAA61A" d="M97.56,146.462l4.092-15.145l4.503-5.729l7.367-6.14l9.004,2.864l8.595-1.638l14.734-4.91
			l-1.637-13.506L165.911,77.7l39.293,28.65l2.456,13.917l-2.865,13.097l2.456,6.141l6.549,8.594l-5.321,10.642l-5.321-1.228
			c0,0,0.818-6.55-0.41-8.595c-1.227-2.047-8.594-6.14-8.594-6.14s-10.642-4.502-11.87-3.685c-1.228,0.819-6.139,2.864-8.595,1.638
			c-2.455-1.227-6.548-4.503-6.548-4.503l-9.823,2.458l5.73,9.412c0,0-0.409,7.367,2.046,9.006c2.456,1.636-0.818,2.863-0.818,2.863
			l-2.456-1.228l-11.87-5.32c0,0-4.502-5.73-6.14-5.73c-1.637,0-13.506-4.093-13.506-4.093l-5.321-3.274l1.637,9.005l0.819,7.777
			l-2.866,1.227l-13.506-4.093l-12.279,6.549"/>
		<polygon opacity="0.4" fill="#FAA61A" points="183.365,39.772 201.373,43.866 195.234,60.646 208.741,89.707 215.698,111.4 
			203.01,112.218 193.188,126.133 204.238,132.683 211.196,142.505 191.959,146.188 180.908,139.231 185.412,126.542 
			160.444,119.175 148.166,103.623 154.305,85.204 140.798,58.601 159.626,63.103 160.035,68.424 151.439,69.651 157.17,79.065 
			165.765,74.153 168.63,63.513 175.179,62.692 174.769,48.776 180.09,56.554 184.592,47.958 		"/>
		<polygon opacity="0.4" fill="#FAA61A" points="115.013,108.943 123.198,101.577 122.79,86.842 128.52,69.651 136.296,62.283 
			138.342,54.508 115.247,92.864 110.336,95.411 111.329,103.214 		"/>
		<polygon opacity="0.4" fill="#FAA61A" points="87.999,138.004 95.874,133.888 102.733,128.999 107.646,136.366 115.831,139.231 
			111.739,142.915 112.557,145.78 109.692,149.464 112.966,153.556 110.919,158.059 104.78,154.784 102.325,160.514 94.548,157.649 
			90.045,155.193 93.73,147.825 92.054,143.983 94.139,141.276 		"/>
		<path opacity="0.4" fill="#FAA61A" d="M142.263,145.894l4.639-7.367l4.366,2.455l3.82-4.365l4.912,4.092
			c0,0,1.364,1.365,2.183,3.275c0.818,1.91,3.547-1.092,3.547-1.092s-1.365,3.275-1.638,4.639c-0.272,1.365-5.457,2.73-5.457,2.73
			l-4.093,1.363l-8.459-3.548L142.263,145.894z"/>
		<polygon opacity="0.4" fill="#FAA61A" points="144.446,166.086 152.358,159.812 160.272,158.718 153.723,163.63 155.088,169.088 
			159.727,170.998 150.176,171.271 		"/>
		<polygon opacity="0.4" fill="#FAA61A" points="72.406,151.896 79.774,157.9 75.954,165.268 72.952,171.544 76.773,176.728 
			82.503,175.637 89.325,177.274 93.69,171.544 93.69,166.632 99.694,163.356 103.241,160.628 90.143,157.081 84.958,153.808 		"/>
		<polygon opacity="0.4" fill="#FAA61A" points="122.889,104.733 125.796,79.552 132.703,60.665 140.334,59.721 143.97,65.701 
			139.608,68.22 144.333,68.849 140.699,75.774 133.792,88.052 138.882,97.495 134.884,104.419 133.792,113.548 126.887,116.696 
			123.616,110.399 		"/>
		<polygon opacity="0.4" fill="#FAA61A" points="146.083,136.616 149.084,127.338 158.635,126.521 161.91,129.249 160.272,121.607 
			167.094,119.151 172.279,124.882 176.918,125.7 181.01,125.7 183.467,130.34 176.372,138.254 180.908,139.231 175.826,143.438 
			172.006,142.073 173.371,137.979 161.636,134.433 155.088,133.888 153.45,135.797 150.722,137.435 		"/>
		<path opacity="0.4" fill="#FAA61A" d="M176.099,154.354l-15.281,6.821l3.002,9.551l8.459,2.455l6.822,0.818l3.274-4.092
			l6.549,2.183l3.547-4.094l9.004,0.272l9.278-3.547l-2.183-7.095l-5.73-7.366c0,0-5.458,3-7.641,3.547
			c-2.183,0.546-13.371,0.271-14.735,0C179.101,153.534,176.099,154.354,176.099,154.354z"/>
		<path opacity="0.4" fill="#FAA61A" d="M76.5,124.609c0,0,4.912-1.638,4.366-2.456c-0.545-0.818-3.274-4.912-3.274-4.912
			l4.912-2.455l2.729-2.457l-0.545,5.73l3.82-0.546l-1.91,6.276L76.5,124.609z"/>
		<path opacity="0.4" fill="#FAA61A" d="M94.236,100.869l-4.366,7.095c0,0,0.272,6.275,1.091,6.275c0.818,0,2.728,4.639,2.728,4.639
			l-2.456,3.002l3.002,1.363l-4.912,2.73l-0.273,4.912l5.458,0.272l7.913-0.546l1.364-4.367l-5.185-6.549l-1.364-9.004l-5.731-0.818
			l3.274-1.91L94.236,100.869z"/>
		<polygon opacity="0.4" fill="#FAA61A" points="146.355,117.241 151.54,108.237 157.271,114.786 160.817,117.514 159.181,121.88 
			160.817,126.245 153.178,124.882 147.72,127.61 146.355,124.336 		"/>
		<polygon opacity="0.4" fill="#FAA61A" points="194.927,122.698 202.022,115.059 207.207,121.88 208.844,127.884 205.297,130.886 
			202.568,125.974 198.475,127.065 		"/>
		<path opacity="0.4" fill="#FAA61A" d="M72.952,173.181c-0.818,0-4.638-0.271-4.638-0.271l3.001-4.367l-2.455-4.912l3.274-3.002
			l0.546-3.273l7.095,0.546l-4.639,8.46L72.952,173.181z"/>
		<path opacity="0.4" fill="#FAA61A" d="M113.337,155.171c0.819,0,4.639-1.363,4.639-1.363l5.458,6.004l7.367,4.91l4.912,4.366
			l-1.091,5.458l-3.547-0.273l-4.094-0.273l6.822,4.095v-1.911l3.82-3.002l1.911-4.093l-2.457-3.82l4.912,1.909l-2.183-3.82
			l-6.003-1.091l-4.366-4.639l-4.365-4.912l3.274-4.093v-2.729l-7.368-0.818l-3.548,3.001h-4.366l-0.545,3.548L113.337,155.171z"/>
		<polyline opacity="0.4" fill="#FAA61A" points="111.974,125.155 107.88,131.703 114.702,138.526 114.975,142.892 120.706,143.165 
			126.163,142.073 127.527,138.526 121.251,133.888 128.619,131.158 127.527,123.519 121.251,120.243 116.339,116.423 
			116.612,124.882 113.065,124.609 		"/>
		<path opacity="0.4" fill="#FAA61A" d="M149.63,151.078l6.822,2.456l5.185-4.094l2.184,0.273l-0.546,3.547l-3.001,4.094
			c0,0-5.185,2.457-6.004,2.729c-0.818,0.273-4.092-1.091-4.092-1.091l0.818-4.367L149.63,151.078z"/>
		<path opacity="0.4" fill="#FAA61A" d="M150.408,136.813l-5.871,4.254l0.463,6.59l-1.455,1.649l-2.625-2.447l-1.691-4.787
			c0,0,0.89-5.667,1.125-6.496c0.235-0.832,3.207-2.769,3.207-2.769l3.147,3.136L150.408,136.813z"/>
		<polygon opacity="0.4" fill="#FAA61A" points="151.54,108.237 158.088,112.057 161.91,119.151 159.727,124.336 161.91,127.065 
			156.725,124.336 150.176,126.521 148.266,129.794 145.537,125.7 148.812,121.88 146.083,118.333 		"/>
		<path opacity="0.4" fill="#FAA61A" d="M126.981,122.153l1.638,9.005l4.639,1.091l5.73,2.456h6.822c0,0,3.547-6.275,2.183-6.003
			c-1.364,0.273-4.093-4.093-4.093-4.093l2.183-1.911v-4.365l-5.73,0.545l-4.912-0.545l-7.367,3.274"/>
		<polyline opacity="0.4" fill="#FAA61A" points="138.169,115.059 142.263,115.331 146.083,118.333 147.447,113.147 
			143.627,111.512 138.715,113.967 		"/>
		<polyline opacity="0.4" fill="#FAA61A" points="144.278,145.36 140.449,143.89 137.686,139.894 134.85,144.442 138.017,147.136 
			143.434,146.241 		"/>
		<polygon opacity="0.4" fill="#FAA61A" points="141.99,106.327 140.352,104.144 143.899,101.414 147.993,100.597 148.166,103.623 
			150.722,106.054 		"/>
		<polyline opacity="0.4" fill="#FAA61A" points="194.382,145.349 205.57,144.802 212.391,142.892 218.122,145.894 217.576,151.624 
			213.483,152.715 211.846,155.989 207.48,152.442 201.204,149.169 193.563,144.256 		"/>
		<polyline opacity="0.4" fill="#FAA61A" points="164.129,103.104 204.792,38.435 210.743,79.363 		"/>
		<polygon opacity="0.4" fill="#FAA61A" points="178.19,118.63 201.52,76.881 207.25,101.849 		"/>
		<path opacity="0.4" fill="#FAA61A" d="M178.19,121.903c-0.41-5.32-2.457-28.24-3.684-27.832
			c-1.228,0.41-24.148,15.145-24.148,15.145L178.19,121.903z"/>
		<path opacity="0.4" fill="#FAA61A" d="M87.736,138.276"/>
		<polygon opacity="0.4" fill="#FAA61A" points="174.506,153.829 206.84,156.692 194.153,164.062 		"/>
		<polygon opacity="0.4" fill="#FAA61A" points="162.637,162.015 173.279,155.876 165.911,171.429 		"/>
		<path opacity="0.4" fill="#FAA61A" d="M160.779,121.306c0,0-9.33-10.334-10.18-11.221c-0.849-0.888-3.571,4.555-3.571,4.555
			L160.779,121.306z"/>
		<polygon opacity="0.4" fill="#FAA61A" points="146.206,67.878 153.179,96.527 158.545,88.341 		"/>
		<polygon opacity="0.4" fill="#FAA61A" points="126.571,76.866 113.95,103.132 122.087,98.942 		"/>
		<polyline opacity="0.4" fill="#FAA61A" points="132.759,72.38 127.438,95.71 136.032,77.29 133.987,70.742 		"/>
		<path opacity="0.4" fill="#FAA61A" d="M96.741,112.899l-2.865,14.325c0,0,6.958-0.817,6.139-2.046
			C99.196,123.95,96.741,112.899,96.741,112.899z"/>
		<polyline opacity="0.4" fill="#FAA61A" points="92.238,158.331 74.639,172.247 99.606,159.968 91.419,156.692 		"/>
		<polygon opacity="0.4" fill="#FAA61A" points="91.011,137.866 94.285,148.099 96.332,138.276 		"/>
		<polygon opacity="0.4" fill="#FAA61A" points="120.479,150.963 125.8,148.099 128.665,159.56 		"/>
		<polygon opacity="0.4" fill="#FAA61A" points="166.729,119.448 171.641,131.317 181.465,127.634 173.688,125.997 		"/>
		<polyline opacity="0.4" fill="#FAA61A" points="209.296,94.892 207.659,103.076 193.334,117.811 190.06,137.866 		"/>
		<polygon opacity="0.4" fill="#FAA61A" points="119.252,125.179 118.843,138.276 122.936,134.593 		"/>
		<polygon opacity="0.4" fill="#FAA61A" points="114.386,135.855 113.131,122.812 109.539,126.984 		"/>
		<polygon opacity="0.4" fill="#FAA61A" points="209.436,124.224 197.67,118.457 199.341,123.705 		"/>
		<polygon opacity="0.4" fill="#FAA61A" points="97.56,136.638 108.201,145.643 112.703,140.322 		"/>
		<polygon opacity="0.4" fill="#FAA61A" points="97.516,145.124 106.293,134.294 100.878,129.905 		"/>
		<polyline opacity="0.4" fill="#FAA61A" points="134.396,128.044 142.991,135.819 149.539,128.862 136.442,127.634 		"/>
		<path opacity="0.4" fill="#FAA61A" d="M117.976,149.346l2.917-3.208l-0.925-2.06l-0.725-2.864l-1.964-2.566
			c0,0-3.383,0.473-2.888,0.906c0.496,0.434-0.363,2.719-0.363,2.719l-1.347-0.271l-1.643,1.258l1.855,1.997l1.208,2.005
			l3.354,1.832"/>
		<polyline opacity="0.4" fill="#FAA61A" points="116.966,150.317 117.418,144.845 112.915,144.383 116.223,149.666 		"/>
		<polygon opacity="0.4" fill="#FAA61A" points="94.694,149.327 99.606,160.378 105.336,155.057 		"/>
		<polygon opacity="0.4" fill="#FAA61A" points="152.642,176.001 166.861,176.444 159.809,174.542 		"/>
		<polygon opacity="0.4" fill="#FAA61A" points="165.23,176.743 156.802,175.417 151.464,176.744 157.524,177.224 160.655,178.188 
			161.979,177.464 		"/>
		<polygon opacity="0.4" fill="#FAA61A" points="152.144,90.603 145.681,61.832 140.17,69.923 		"/>
		<polygon opacity="0.4" fill="#FAA61A" points="138.54,68.012 154.694,92.681 144.495,94.185 		"/>
		<line opacity="0.48" fill="#FAA61A" x1="117.979" y1="129.13" x2="123.186" y2="137.081"/>
		<g>
			<polygon opacity="0.4" fill="#FAA61A" points="58.291,189.609 57.741,187.954 55.618,189.414 55.698,190.729 			"/>
			<polygon opacity="0.4" fill="#FAA61A" points="52.584,187.675 53.588,188.829 55.227,186.534 53.247,187.505 			"/>
			<polygon opacity="0.4" fill="#FAA61A" points="64.046,187.185 62.866,187.048 60.529,189.489 62.181,188.64 			"/>
			<polygon opacity="0.4" fill="#FAA61A" points="64.724,185.649 65.388,186.155 66.039,184.411 65.992,184.212 			"/>
			<polygon opacity="0.4" fill="#FAA61A" points="47.469,186.087 48.418,186.812 48.313,185.552 48.416,185.344 			"/>
			<polygon opacity="0.4" fill="#FAA61A" points="50.149,188.114 50.814,188.622 51.102,187.739 51.03,187.739 			"/>
		</g>
		<polygon opacity="0.4" fill="#FAA61A" points="77.767,79.475 86.362,74.972 83.498,66.377 78.995,70.47 72.855,67.604 
			69.991,72.926 73.674,73.335 72.037,76.608 		"/>
		<polygon opacity="0.4" fill="#FAA61A" points="74.23,68.695 79.141,79.747 84.871,74.427 		"/>
	</g>
	<g>
		<polygon opacity="0.4" fill="#FAA61A" points="135.515,144.79 140.484,150.989 151.009,159.175 152.003,155.315 149.373,144.653 
					"/>
		<polygon opacity="0.4" fill="#FAA61A" points="131.393,143.649 136.538,151.312 148.319,161.396 146.522,165.124 150.775,163.983 
			153.699,160.216 143.204,152.687 136.304,144.645 		"/>
	</g>
</g>
</svg>
